<?xml version="1.0" encoding="utf-8"?>
<!-- Generator: Adobe Illustrator 25.2.3, SVG Export Plug-In . SVG Version: 6.00 Build 0)  -->
<svg version="1.1" id="Capa_1" xmlns="http://www.w3.org/2000/svg" xmlns:xlink="http://www.w3.org/1999/xlink" x="0px" y="0px"
	 viewBox="0 0 26 19.6" style="enable-background:new 0 0 26 19.6;" xml:space="preserve">
<style type="text/css">
	.st0{fill:#5DB156;}
	.st1{fill:#2B2B2B;}
	.st2{fill:#00BA3F;}
	.st3{fill:#FFFFFF;}
	.st4{stroke:#000000;stroke-width:0.5;stroke-miterlimit:10;}
</style>
<g>
	<path class="st2" d="M21.1,6c-1.5-3.1-4-4.8-7.4-5.1C12.1,0.7,10.5,1,9,1.7c-2,1-3.4,2.5-4.3,4.5C4,7.8,3.9,9.4,4.1,11
		c0.2,1.4,0.7,2.7,1.5,3.9c0.1,0.1,0.1,0.4,0.1,0.5c-0.1,0.8-0.3,1.7-0.5,2.5c-0.1,0.3-0.1,0.5-0.2,0.8c0.1,0,0.2-0.1,0.3-0.1
		c1-0.3,1.9-0.7,2.9-1c0.2-0.1,0.3-0.1,0.5,0c0.9,0.5,1.8,0.8,2.8,1c1.3,0.2,2.5,0.2,3.8-0.2c2.7-0.8,4.7-2.4,5.9-5
		C22.3,11,22.3,8.4,21.1,6z"/>
	<g>
		<path class="st3" d="M13.1,3.6c2.7,0,5,1.8,5.7,4.4c0.9,3.3-1.1,6.6-4.4,7.4c-1.4,0.3-2.8,0.1-4.1-0.5c-0.2-0.1-0.3-0.1-0.5,0
			c-0.6,0.2-1.2,0.4-1.7,0.6c-0.1,0-0.2,0-0.3,0c0-0.1,0-0.2,0-0.3C7.9,14.6,8,14,8.1,13.4c0-0.2,0-0.4-0.1-0.6
			c-1.3-2.2-1.3-4.3,0-6.5C9.1,4.6,11,3.6,13.1,3.6z M9,14.1c0.3-0.1,0.6-0.2,0.9-0.3c0.2-0.1,0.4-0.1,0.6,0.1
			c1.3,0.8,2.6,0.9,4,0.5c3.6-1.1,4.7-5.6,2.1-8.2c-1.9-2-5.1-2-7,0c-1.8,1.8-2,4.5-0.5,6.5c0.1,0.2,0.2,0.4,0.1,0.6
			C9.1,13.5,9.1,13.8,9,14.1z"/>
		<path class="st3" d="M9.8,8c0-0.7,0.5-1.4,1.1-1.4c0.4,0,0.6,0.1,0.7,0.4c0.1,0.3,0.2,0.6,0.4,0.9c0.2,0.3,0.1,0.6-0.1,0.8
			c-0.3,0.4-0.3,0.4,0,0.8c0.5,0.6,1,1.2,1.8,1.5c0.2,0.1,0.4,0.1,0.5-0.1c0.1-0.1,0.2-0.3,0.3-0.4c0.1-0.2,0.3-0.2,0.5-0.1
			c0.4,0.2,0.8,0.4,1.1,0.6c0.1,0.1,0.2,0.2,0.2,0.4c0,0.6-0.4,1.1-1,1.3c-0.4,0.2-0.9,0.1-1.3,0c-1.5-0.4-2.5-1.3-3.4-2.5
			C10.1,9.3,9.8,8.7,9.8,8z"/>
	</g>
</g>
</svg>
